<svg xmlns="http://www.w3.org/2000/svg" xmlns:xlink="http://www.w3.org/1999/xlink" width="1201.762" height="1046.807" viewBox="0 0 1201.762 1046.807">
  <defs>
    <clipPath id="clip-path">
      <rect id="Rectangle_16" data-name="Rectangle 16" width="1073" height="973" transform="translate(0 107)" fill="#fff" stroke="#707070" stroke-width="1"/>
    </clipPath>
    <filter id="Path_58" x="-641.666" y="-513.701" width="2250.394" height="2253.337" filterUnits="userSpaceOnUse">
      <feOffset dy="3" input="SourceAlpha"/>
      <feGaussianBlur stdDeviation="49.5" result="blur"/>
      <feFlood flood-color="#fff" flood-opacity="0.439"/>
      <feComposite operator="in" in2="blur"/>
      <feComposite in="SourceGraphic"/>
    </filter>
  </defs>
  <g id="Group_54" data-name="Group 54" transform="translate(128.762 -76.983)">
    <g id="Group_53" data-name="Group 53">
      <g id="Mask_Group_3" data-name="Mask Group 3" clip-path="url(#clip-path)">
        <path id="Path_59" data-name="Path 59" d="M20.489,1.77c716.043-145.4,165.534,336.5,796.087,269.523,373.918-39.717,365.439,388.305,277.7,650.156-60.364,180.16-228.7,375.718-228.7,375.718L20.489,1041.723S-695.554,147.17,20.489,1.77Z" transform="translate(638.108 129.987) rotate(52)" fill="rgba(128,135,232,0.65)"/>
        <g transform="matrix(1, 0, 0, 1, -128.76, 76.98)" filter="url(#Path_58)">
          <path id="Path_58-2" data-name="Path 58" d="M20.489,1.77c716.043-145.4,165.534,336.5,796.087,269.523,373.918-39.717,365.439,388.305,277.7,650.156-60.364,180.16-228.7,375.718-228.7,375.718L20.489,1041.723S-695.554,147.17,20.489,1.77Z" transform="matrix(0.69, 0.72, -0.72, 0.69, 646.77, -136.15)" fill="#8087e8"/>
        </g>
      </g>
      <g id="undraw_programming_re_kg9v" transform="translate(40 321.194)">
        <path id="Path_87" data-name="Path 87" d="M1156.955,873.7c57.862-44.072,85.5-118.13,68.2-188.776q-.645-2.633-1.361-5.254c-11.47-41.935-39.848-81.791-81.207-95.19-34.728-11.251-72.634-2.6-108.863-7.073-71.12-8.783-126.258-66.327-165.054-126.577S800.054,323.139,748.5,273.364c-84.975-82.046-223.592-99.71-328.949-46.3S247.084,398.95,249.946,517.035s72.964,230.984,174.77,290.883c37.4,22,80.655,37.593,123.7,32.138,37.352-4.733,71.292-24.8,108.468-30.762,58.45-9.368,116.528,17.059,167.084,47.855s99.387,67.3,156.836,81.575C1036.589,952.586,1105.7,912.74,1156.955,873.7Z" transform="translate(-64.608 -517.291) rotate(21)" fill="#c8dbff"/>
        <circle id="Ellipse_8" data-name="Ellipse 8" cx="25.411" cy="25.411" r="25.411" transform="translate(410.768 45.187)" fill="#f2f2f2"/>
        <path id="Path_60" data-name="Path 60" d="M841.98,638.586c37.77-28.768,55.81-77.111,44.517-123.227q-.421-1.719-.889-3.43c-7.487-27.374-26.011-53.39-53.009-62.137-22.669-7.344-47.413-1.7-71.062-4.617-46.425-5.733-82.417-43.3-107.742-82.625s-44.788-83.352-78.44-115.843C519.886,193.151,429.4,181.62,360.629,216.481s-112.582,112.2-110.714,189.287S297.544,556.546,364,595.646c24.413,14.364,52.649,24.539,80.749,20.979,24.382-3.09,46.537-16.191,70.8-20.08,38.154-6.115,76.066,11.135,109.066,31.238S689.5,671.712,727,681.032C763.409,690.08,808.521,664.071,841.98,638.586Z" transform="translate(-208.68 -165.452)" fill="#f2f2f2"/>
        <path id="Path_61" data-name="Path 61" d="M794.03,216.518c-.828-.552-1.665-1.075-2.494-1.608a361.871,361.871,0,0,0-76.43-37.049l-6.224,85.861H669.426v-98.4c-2.484-.514-4.987-1-7.49-1.456v99.851h-46.89a97.329,97.329,0,0,1-97.329-97.329h0c-2.512.542-5.006,1.123-7.5,1.742v95.588H472.026L466.1,181.848a362.459,362.459,0,0,0-77.981,41.427c-.419.286-.838.581-1.247.866-2.1,1.475-4.178,2.979-6.243,4.5V556.2H493.182l-1.989-27.551L480.249,377.382h220.4L689.706,528.653,687.717,556.2h111.31V219.83Q796.543,218.146,794.03,216.518ZM510.218,352.4H478.441l-5.872-81.179h37.649Zm151.718,0H608.565v-1.608a5.881,5.881,0,0,0-5.891-5.881h-23.2a5.879,5.879,0,0,0-5.881,5.881V352.4H517.717V271.222H661.936Zm7.49,0V271.222H708.34L702.468,352.4Z" transform="translate(-214.998 -163.871)" fill="#3f3d56"/>
        <path id="Path_62" data-name="Path 62" d="M206.59,598.162a275.038,275.038,0,0,0,26.761,27.551l695.285.952A275.036,275.036,0,0,0,955.4,599.114Z" transform="translate(-206.59 -184.852)" fill="#3f3d56"/>
        <path id="Path_63" data-name="Path 63" d="M702.02,505.263v81.564a3.923,3.923,0,0,0,3.92,3.92H826.808a3.923,3.923,0,0,0,3.92-3.92V505.263a3.925,3.925,0,0,0-3.92-3.916H705.94a3.925,3.925,0,0,0-3.92,3.916Z" transform="translate(-230.525 -180.175)" fill="#3f3d56"/>
        <path id="Path_64" data-name="Path 64" d="M705,506.422v79.542a2.1,2.1,0,0,0,2.1,2.1H825.946a2.1,2.1,0,0,0,2.1-2.1V506.422a2.1,2.1,0,0,0-2.095-2.1H707.095a2.1,2.1,0,0,0-2.1,2.1Z" transform="translate(-230.668 -180.319)" fill="#839df5"/>
        <path id="Path_65" data-name="Path 65" d="M699.337,607.2a2.351,2.351,0,0,0,1.85.885H830.608a2.381,2.381,0,0,0,2.328-2.87l-2.009-9.543a2.386,2.386,0,0,0-1.483-1.73,2.306,2.306,0,0,0-.845-.159H703.187a2.308,2.308,0,0,0-.845.159,2.386,2.386,0,0,0-1.483,1.73l-2.009,9.543a2.38,2.38,0,0,0,.487,1.985Z" transform="translate(-230.369 -184.64)" fill="#2f2e41"/>
        <rect id="Rectangle_17" data-name="Rectangle 17" width="3.986" height="2.392" rx="0.488" transform="translate(597.311 413.253) rotate(180)" fill="#3f3d56"/>
        <rect id="Rectangle_18" data-name="Rectangle 18" width="3.986" height="2.392" rx="0.488" transform="translate(589.339 413.253) rotate(180)" fill="#3f3d56"/>
        <rect id="Rectangle_19" data-name="Rectangle 19" width="3.986" height="2.392" rx="0.488" transform="translate(581.366 413.253) rotate(180)" fill="#3f3d56"/>
        <rect id="Rectangle_20" data-name="Rectangle 20" width="3.986" height="2.392" rx="0.488" transform="translate(573.394 413.253) rotate(180)" fill="#3f3d56"/>
        <rect id="Rectangle_21" data-name="Rectangle 21" width="3.986" height="2.392" rx="0.488" transform="translate(565.422 413.253) rotate(180)" fill="#3f3d56"/>
        <rect id="Rectangle_22" data-name="Rectangle 22" width="3.986" height="2.392" rx="0.488" transform="translate(557.449 413.253) rotate(180)" fill="#3f3d56"/>
        <rect id="Rectangle_23" data-name="Rectangle 23" width="3.986" height="2.392" rx="0.488" transform="translate(549.477 413.253) rotate(180)" fill="#3f3d56"/>
        <rect id="Rectangle_24" data-name="Rectangle 24" width="3.986" height="2.392" rx="0.488" transform="translate(541.505 413.253) rotate(180)" fill="#3f3d56"/>
        <rect id="Rectangle_25" data-name="Rectangle 25" width="3.986" height="2.392" rx="0.488" transform="translate(533.533 413.253) rotate(180)" fill="#3f3d56"/>
        <rect id="Rectangle_26" data-name="Rectangle 26" width="3.986" height="2.392" rx="0.488" transform="translate(525.56 413.253) rotate(180)" fill="#3f3d56"/>
        <rect id="Rectangle_27" data-name="Rectangle 27" width="3.986" height="2.392" rx="0.488" transform="translate(517.588 413.253) rotate(180)" fill="#3f3d56"/>
        <rect id="Rectangle_28" data-name="Rectangle 28" width="3.986" height="2.392" rx="0.488" transform="translate(509.616 413.253) rotate(180)" fill="#3f3d56"/>
        <rect id="Rectangle_29" data-name="Rectangle 29" width="3.986" height="2.392" rx="0.488" transform="translate(501.644 413.253) rotate(180)" fill="#3f3d56"/>
        <rect id="Rectangle_30" data-name="Rectangle 30" width="3.986" height="2.392" rx="0.488" transform="translate(493.671 413.253) rotate(180)" fill="#3f3d56"/>
        <rect id="Rectangle_31" data-name="Rectangle 31" width="3.986" height="2.392" rx="0.488" transform="translate(485.699 413.253) rotate(180)" fill="#3f3d56"/>
        <rect id="Rectangle_32" data-name="Rectangle 32" width="3.986" height="2.392" rx="0.488" transform="translate(477.727 413.253) rotate(180)" fill="#3f3d56"/>
        <rect id="Rectangle_33" data-name="Rectangle 33" width="3.986" height="2.392" rx="0.488" transform="translate(597.405 417.238) rotate(180)" fill="#3f3d56"/>
        <rect id="Rectangle_34" data-name="Rectangle 34" width="3.986" height="2.392" rx="0.488" transform="translate(589.433 417.238) rotate(180)" fill="#3f3d56"/>
        <rect id="Rectangle_35" data-name="Rectangle 35" width="3.986" height="2.392" rx="0.488" transform="translate(581.46 417.238) rotate(180)" fill="#3f3d56"/>
        <rect id="Rectangle_36" data-name="Rectangle 36" width="3.986" height="2.392" rx="0.488" transform="translate(573.488 417.238) rotate(180)" fill="#3f3d56"/>
        <rect id="Rectangle_37" data-name="Rectangle 37" width="3.986" height="2.392" rx="0.488" transform="translate(565.516 417.238) rotate(180)" fill="#3f3d56"/>
        <rect id="Rectangle_38" data-name="Rectangle 38" width="3.986" height="2.392" rx="0.488" transform="translate(557.544 417.238) rotate(180)" fill="#3f3d56"/>
        <rect id="Rectangle_39" data-name="Rectangle 39" width="3.986" height="2.392" rx="0.488" transform="translate(549.571 417.238) rotate(180)" fill="#3f3d56"/>
        <rect id="Rectangle_40" data-name="Rectangle 40" width="3.986" height="2.392" rx="0.488" transform="translate(541.599 417.238) rotate(180)" fill="#3f3d56"/>
        <rect id="Rectangle_41" data-name="Rectangle 41" width="3.986" height="2.392" rx="0.488" transform="translate(533.627 417.238) rotate(180)" fill="#3f3d56"/>
        <rect id="Rectangle_42" data-name="Rectangle 42" width="3.986" height="2.392" rx="0.488" transform="translate(525.655 417.238) rotate(180)" fill="#3f3d56"/>
        <rect id="Rectangle_43" data-name="Rectangle 43" width="3.986" height="2.392" rx="0.488" transform="translate(517.682 417.238) rotate(180)" fill="#3f3d56"/>
        <rect id="Rectangle_44" data-name="Rectangle 44" width="3.986" height="2.392" rx="0.488" transform="translate(509.71 417.238) rotate(180)" fill="#3f3d56"/>
        <rect id="Rectangle_45" data-name="Rectangle 45" width="3.986" height="2.392" rx="0.488" transform="translate(501.738 417.238) rotate(180)" fill="#3f3d56"/>
        <rect id="Rectangle_46" data-name="Rectangle 46" width="3.986" height="2.392" rx="0.488" transform="translate(493.765 417.238) rotate(180)" fill="#3f3d56"/>
        <rect id="Rectangle_47" data-name="Rectangle 47" width="3.986" height="2.392" rx="0.488" transform="translate(485.793 417.238) rotate(180)" fill="#3f3d56"/>
        <rect id="Rectangle_48" data-name="Rectangle 48" width="3.986" height="2.392" rx="0.488" transform="translate(477.821 417.238) rotate(180)" fill="#3f3d56"/>
        <rect id="Rectangle_49" data-name="Rectangle 49" width="31.889" height="2.392" rx="0.488" transform="translate(559.138 422.022) rotate(180)" fill="#3f3d56"/>
        <rect id="Rectangle_50" data-name="Rectangle 50" width="5.678" height="2.971" rx="1.486" transform="translate(490.72 341.406)" fill="#fff"/>
        <rect id="Rectangle_51" data-name="Rectangle 51" width="5.678" height="2.971" rx="1.486" transform="translate(521.672 341.406)" fill="#fff"/>
        <rect id="Rectangle_52" data-name="Rectangle 52" width="5.678" height="2.971" rx="1.486" transform="translate(530.442 341.406)" fill="#fff"/>
        <rect id="Rectangle_53" data-name="Rectangle 53" width="19.791" height="2.971" rx="1.486" transform="translate(499.139 341.159)" fill="#fff"/>
        <rect id="Rectangle_54" data-name="Rectangle 54" width="19.791" height="2.971" rx="1.486" transform="translate(540.408 341.159)" fill="#fff"/>
        <rect id="Rectangle_55" data-name="Rectangle 55" width="5.678" height="2.971" rx="1.486" transform="translate(498.975 348.113)" fill="#fff"/>
        <rect id="Rectangle_56" data-name="Rectangle 56" width="5.678" height="2.971" rx="1.486" transform="translate(529.926 348.113)" fill="#fff"/>
        <rect id="Rectangle_57" data-name="Rectangle 57" width="5.678" height="2.971" rx="1.486" transform="translate(538.696 348.113)" fill="#fff"/>
        <rect id="Rectangle_58" data-name="Rectangle 58" width="19.791" height="2.971" rx="1.486" transform="translate(507.393 347.864)" fill="#fff"/>
        <rect id="Rectangle_59" data-name="Rectangle 59" width="19.791" height="2.971" rx="1.486" transform="translate(548.662 347.864)" fill="#fff"/>
        <rect id="Rectangle_60" data-name="Rectangle 60" width="5.678" height="2.971" rx="1.486" transform="translate(507.229 354.818)" fill="#fff"/>
        <rect id="Rectangle_61" data-name="Rectangle 61" width="5.678" height="2.971" rx="1.486" transform="translate(538.18 354.818)" fill="#fff"/>
        <rect id="Rectangle_62" data-name="Rectangle 62" width="5.678" height="2.971" rx="1.486" transform="translate(546.95 354.818)" fill="#fff"/>
        <rect id="Rectangle_63" data-name="Rectangle 63" width="19.791" height="2.971" rx="1.486" transform="translate(515.647 354.571)" fill="#fff"/>
        <rect id="Rectangle_64" data-name="Rectangle 64" width="19.791" height="2.971" rx="1.486" transform="translate(556.916 354.571)" fill="#fff"/>
        <rect id="Rectangle_65" data-name="Rectangle 65" width="5.678" height="2.971" rx="1.486" transform="translate(515.482 361.525)" fill="#fff"/>
        <rect id="Rectangle_66" data-name="Rectangle 66" width="5.678" height="2.971" rx="1.486" transform="translate(546.433 361.525)" fill="#fff"/>
        <rect id="Rectangle_67" data-name="Rectangle 67" width="5.678" height="2.971" rx="1.486" transform="translate(555.203 361.525)" fill="#fff"/>
        <rect id="Rectangle_68" data-name="Rectangle 68" width="19.791" height="2.971" rx="1.486" transform="translate(523.901 361.277)" fill="#fff"/>
        <rect id="Rectangle_69" data-name="Rectangle 69" width="5.678" height="2.971" rx="1.486" transform="translate(521.672 388.192)" fill="#fff"/>
        <rect id="Rectangle_70" data-name="Rectangle 70" width="5.678" height="2.971" rx="1.486" transform="translate(530.442 388.192)" fill="#fff"/>
        <rect id="Rectangle_71" data-name="Rectangle 71" width="19.791" height="2.971" rx="1.486" transform="translate(540.408 388.44)" fill="#fff"/>
        <rect id="Rectangle_72" data-name="Rectangle 72" width="5.678" height="2.971" rx="1.486" transform="translate(490.72 388.192)" fill="#fff"/>
        <rect id="Rectangle_73" data-name="Rectangle 73" width="19.791" height="2.971" rx="1.486" transform="translate(499.139 388.44)" fill="#fff"/>
        <rect id="Rectangle_74" data-name="Rectangle 74" width="5.678" height="2.971" rx="1.486" transform="translate(498.975 381.486)" fill="#fff"/>
        <rect id="Rectangle_75" data-name="Rectangle 75" width="5.678" height="2.971" rx="1.486" transform="translate(529.926 381.486)" fill="#fff"/>
        <rect id="Rectangle_76" data-name="Rectangle 76" width="5.678" height="2.971" rx="1.486" transform="translate(538.696 381.486)" fill="#fff"/>
        <rect id="Rectangle_77" data-name="Rectangle 77" width="19.791" height="2.971" rx="1.486" transform="translate(507.393 381.733)" fill="#fff"/>
        <rect id="Rectangle_78" data-name="Rectangle 78" width="5.678" height="2.971" rx="1.486" transform="translate(507.229 374.779)" fill="#fff"/>
        <rect id="Rectangle_79" data-name="Rectangle 79" width="5.678" height="2.971" rx="1.486" transform="translate(538.18 374.779)" fill="#fff"/>
        <rect id="Rectangle_80" data-name="Rectangle 80" width="5.678" height="2.971" rx="1.486" transform="translate(546.95 374.779)" fill="#fff"/>
        <rect id="Rectangle_81" data-name="Rectangle 81" width="19.791" height="2.971" rx="1.486" transform="translate(515.647 375.026)" fill="#fff"/>
        <rect id="Rectangle_82" data-name="Rectangle 82" width="5.678" height="2.971" rx="1.486" transform="translate(515.482 368.073)" fill="#fff"/>
        <rect id="Rectangle_83" data-name="Rectangle 83" width="5.678" height="2.971" rx="1.486" transform="translate(546.433 368.073)" fill="#fff"/>
        <rect id="Rectangle_84" data-name="Rectangle 84" width="5.678" height="2.971" rx="1.486" transform="translate(555.203 368.073)" fill="#fff"/>
        <rect id="Rectangle_85" data-name="Rectangle 85" width="19.791" height="2.971" rx="1.486" transform="translate(523.901 368.321)" fill="#fff"/>
        <path id="Path_66" data-name="Path 66" d="M710.862,650.489l-12.7-20.082,39.878-31.789,16.46-18.235a18.236,18.236,0,0,1,30.852,6.5h0a18.236,18.236,0,0,1-11.011,22.832L748.308,619.3Z" transform="translate(-230.338 -183.702)" fill="#ffb6b6"/>
        <path id="Path_67" data-name="Path 67" d="M398.28,501.185V598.79h68.379V501.185a3.281,3.281,0,0,0-2.313-3.141,3.021,3.021,0,0,0-.98-.152H401.582a3.3,3.3,0,0,0-3.3,3.293Zm26.685,33.538a7.3,7.3,0,1,1,14.6,0v11.325a7.3,7.3,0,1,1-14.6,0Z" transform="translate(-215.851 -180.008)" fill="#2f2e41"/>
        <path id="Path_68" data-name="Path 68" d="M398.06,600.632v9.412a1.852,1.852,0,0,0,1.837,1.846h65.124a1.846,1.846,0,0,0,1.837-1.846v-9.412Z" transform="translate(-215.84 -184.971)" fill="#3f3d56"/>
        <path id="Path_69" data-name="Path 69" d="M285.25,346.4V524.611a8.572,8.572,0,0,0,8.565,8.565H557.909a8.572,8.572,0,0,0,8.565-8.565V346.4a8.576,8.576,0,0,0-8.565-8.556H293.815a8.576,8.576,0,0,0-8.565,8.556Z" transform="translate(-210.39 -172.276)" fill="#3f3d56"/>
        <path id="Path_70" data-name="Path 70" d="M291.76,348.929v173.8a4.586,4.586,0,0,0,4.578,4.578H556.025a4.586,4.586,0,0,0,4.578-4.578v-173.8a4.587,4.587,0,0,0-4.577-4.587H296.338a4.588,4.588,0,0,0-4.578,4.587Z" transform="translate(-210.705 -172.59)" fill="#fff"/>
        <path id="Path_71" data-name="Path 71" d="M342.368,610.979a2.806,2.806,0,0,0,2.208,1.056h154.5a2.843,2.843,0,0,0,2.779-3.426l-2.4-11.392a2.848,2.848,0,0,0-1.77-2.065,2.755,2.755,0,0,0-1.009-.19H346.964a2.754,2.754,0,0,0-1.009.19,2.848,2.848,0,0,0-1.77,2.065l-2.4,11.392A2.841,2.841,0,0,0,342.368,610.979Z" transform="translate(-213.119 -184.697)" fill="#2f2e41"/>
        <path id="Path_72" data-name="Path 72" d="M548.2,369.4H305.212a.966.966,0,1,1,0-1.933H548.2a.966.966,0,1,1,0,1.933Z" transform="translate(-211.308 -173.707)" fill="#3f3d56"/>
        <ellipse id="Ellipse_9" data-name="Ellipse 9" cx="5.663" cy="5.789" rx="5.663" ry="5.789" transform="translate(104.782 177.249)" fill="#3f3d56"/>
        <ellipse id="Ellipse_10" data-name="Ellipse 10" cx="5.663" cy="5.789" rx="5.663" ry="5.789" transform="translate(124.344 177.249)" fill="#3f3d56"/>
        <ellipse id="Ellipse_11" data-name="Ellipse 11" cx="5.663" cy="5.789" rx="5.663" ry="5.789" transform="translate(143.907 177.249)" fill="#3f3d56"/>
        <path id="Path_73" data-name="Path 73" d="M547.449,351.622H533.554a1.052,1.052,0,0,0,0,2.1h13.895a1.052,1.052,0,1,0,0-2.1Z" transform="translate(-222.336 -172.941)" fill="#3f3d56"/>
        <path id="Path_74" data-name="Path 74" d="M547.447,355.772H533.553a1.052,1.052,0,1,0,0,2.1h13.895a1.052,1.052,0,1,0,0-2.1Z" transform="translate(-222.335 -173.142)" fill="#3f3d56"/>
        <path id="Path_75" data-name="Path 75" d="M547.449,359.922H533.554a1.052,1.052,0,0,0,0,2.1h13.895a1.052,1.052,0,1,0,0-2.1Z" transform="translate(-222.336 -173.342)" fill="#3f3d56"/>
        <path id="Path_76" data-name="Path 76" d="M899.828,602a6.106,6.106,0,0,0,5.884,4.122l25.212-.649a6.023,6.023,0,0,0,5.692-4.432l3.568-38.151a9.32,9.32,0,0,0,4.033.829,9.195,9.195,0,0,0-.461-18.383,7.786,7.786,0,0,0-1.652.172,6.231,6.231,0,0,0-4.638-2l-38.782,1a5.569,5.569,0,0,0-.957.119,6.057,6.057,0,0,0-4.638,7.865Zm41.088-41.7,2.539-9.091a6.192,6.192,0,0,0,.019-3.212c.123,0,.232-.059.355-.059a6.577,6.577,0,1,1,.308,13.15,6.191,6.191,0,0,1-3.221-.787Z" transform="translate(-239.74 -182.212)" fill="#2f2e41"/>
        <path id="Path_77" data-name="Path 77" d="M897.978,544.629c.826,4.724,10.116,8.045,21.285,7.468,10.271-.473,18.67-4.08,20.208-8.354a5.737,5.737,0,0,0-1.755-.234l-38.782,1A5.568,5.568,0,0,0,897.978,544.629Z" transform="translate(-239.991 -182.212)" fill="#3f3d56"/>
        <path id="Path_78" data-name="Path 78" d="M922.453,582.525a.473.473,0,0,0,.144-.063l5.475-3.584a.475.475,0,0,0,0-.8l-5.691-3.727a.476.476,0,0,0-.521.8l5.083,3.329-4.867,3.186a.476.476,0,0,0,.377.859Z" transform="translate(-241.135 -183.698)" fill="#839df5"/>
        <path id="Path_79" data-name="Path 79" d="M913.09,582.944a.476.476,0,0,0,.12-.874l-5.047-2.893,4.878-3.623a.475.475,0,1,0-.567-.763l-5.461,4.057a.475.475,0,0,0,.047.794l5.677,3.254A.476.476,0,0,0,913.09,582.944Z" transform="translate(-240.419 -183.718)" fill="#839df5"/>
        <path id="Path_80" data-name="Path 80" d="M921.5,585.549a.456.456,0,0,0,.13-.055.476.476,0,0,0,.159-.654l-7.761-12.761a.476.476,0,0,0-.813.5l7.761,12.761A.476.476,0,0,0,921.5,585.549Z" transform="translate(-240.724 -183.581)" fill="#839df5"/>
        <rect id="Rectangle_86" data-name="Rectangle 86" width="48.269" height="10.322" rx="3.264" transform="translate(199.269 248.226)" fill="#839df5"/>
        <rect id="Rectangle_87" data-name="Rectangle 87" width="97.297" height="10.322" rx="3.264" transform="translate(174.755 268.87)" fill="#e6e6e6"/>
        <rect id="Rectangle_88" data-name="Rectangle 88" width="97.297" height="10.322" rx="3.264" transform="translate(174.755 289.513)" fill="#e6e6e6"/>
        <path id="Path_81" data-name="Path 81" d="M497.3,538.033l.206.651.011.022,6.21,18.88,7.144,21.756,13.44,40.886.13,6.351v.022l1,51.091-2.768,6.926,3.116,11.356s-1.433-17.166-9.12-7.308c-4.353,5.6-9.445,11.334-13.625,16.708q9.136,3.7,18.565,6.688c1.357.434,2.725.847,4.093,1.259l.879.261a253.971,253.971,0,0,0,64.1,10.3c1.129.033,2.236.054,3.311.076.38.011.749.022,1.118.022,1.216.011,2.421.022,3.637.022q3.68,0,7.328-.109a253.955,253.955,0,0,0,53.382-7.22c-.119-7.22-.445-15.655-.912-24.666-.217-4.419-5.092-9.206-5.385-13.831-.206-3.474,4.169-6.742,3.941-10.27-1.477-21.724-3.322-13.385-4.69-28.768q-.212-2.264-.391-4.332c-.879-9.879-1.487-16.057-1.487-16.057l5.841-36.815,9.174-57.8-.706-1.162-.793-.391-48.388-23.95-2.627-6.731a10.448,10.448,0,0,0-9.651-6.612l-31.875-.13a10.4,10.4,0,0,0-8.479,4.31L554.4,501.425Z" transform="translate(-220.634 -179.393)" fill="#3f3d56"/>
        <path id="Path_82" data-name="Path 82" d="M529.971,613.011l-7.22,15.449-4.929,10.553L509.343,683.4,505.1,687.91l-3.637-15.95L463.4,680.412c-1.249-6.937-.334.235-1.105-7.376.217-.217.445-.434.673-.651.608-.565,1.118-1.1,1.107-1.607-.434-26.251.868-70.926,11.747-97.992a57.151,57.151,0,0,1,6.688-12.474c.217-.293.423-.586.63-.879,5.016-7.024,8.186-13.94,12.681-18.858v-.011a.5.5,0,0,0,.076-.076.149.149,0,0,0,.043-.033l30.876-16.372,1.325,37.216.945,26.751Z" transform="translate(-218.943 -181.273)" fill="#3f3d56"/>
        <path id="Path_83" data-name="Path 83" d="M650.391,617.417l9.018,19.3,3.148,6.72,8.477,44.388,4.231,4.495,3.645-15.946,1.713-.351,30.89-6.4,9,28.595a17.115,17.115,0,0,0-3.1-21.418c-.615-.556-1.127-1.1-1.113-1.61.512-30.876-1.376-87.254-18.432-110.459-5.417-7.364-8.667-14.7-13.4-19.823-.015-.015-.015-.029-.029-.029l-11.507-18.841-.7-1.157-.791-.4Z" transform="translate(-228.03 -181.293)" fill="#3f3d56"/>
        <circle id="Ellipse_5" data-name="Ellipse 5" cx="42.406" cy="42.406" r="42.406" transform="translate(325.324 211.887)" fill="#ffb6b6"/>
        <path id="Path_84" data-name="Path 84" d="M647.882,398.276a3.578,3.578,0,0,0-2.56-1.133l.638-1.77a3.357,3.357,0,0,0-3.769-4.473l-2.322.447.219-1.551a3.363,3.363,0,0,0-4.5-3.635,3.584,3.584,0,0,1-3.083-.219,3.66,3.66,0,0,1-1.827-2.484l-.809-3.9-.086-.209c-3.94-6.567-11.515-11.344-20.785-13.1-8.251-1.57-16.712-.771-24.868-.019-3.236.3-6.89.647-9.936,2.512-2.589,1.6-4.778,4.8-4.33,8.023-8.042-2.465-16.664,2.455-20.937,8.66-5.063,7.385-5.891,16.636-6.024,23.868-.362,17.111,3.169,31.111,10.469,41.617.533.761.666,2.351,1.723,2.884l-.219-.352c1.18.59,2.379,1.542,1.932,2.56-1.285,2.931,7.252,9.412,13.267,11.554,10.973,3.911,25.562,3.578,35.822,2.17l.362-2.427c3.7-.5,6.31-1.466,7.043-2.969,1.294-1.1,2.4-2.094,3.359-3.007l.01-.01c.019-.019.057-.048.076-.067,4.635-4.444,5.71-6.976,6.2-10.83.466-3.778-.362-7.613-1.209-11.068,17.835,2.76-7.023-19,9.593-23.2a5.17,5.17,0,0,1,.581-.143c.485-.114.971-.228,1.437-.362a25.171,25.171,0,0,0,6.4-2.731c4.644-2.827,6.176-6.576,8.575-10.8a3.261,3.261,0,0,0-.428-3.835Z" transform="translate(-222.836 -173.605)" fill="#2f2e41"/>
        <path id="Path_85" data-name="Path 85" d="M736.407,622.2c-.01,1.665-.029,4-.1,6.881q-.014.6-.029,1.228c-.124,5.3-.247,9.745-.447,14.685-.01.343-.019.676-.038,1.018-.266,6.89-.685,14.913-1.409,27.618-1.342,23.469-3.683,3.226-6.034,11.458-.114.409-.238.895-.352,1.466a26.57,26.57,0,0,1-1.789,6.024c-1.247.742-2.531,1.456-3.8,2.17-3.607,2.008-7.271,3.94-10.963,5.777-2.075,1.028-4.159,2.037-6.253,3.007-.333.152-.657.3-.98.447A257.812,257.812,0,0,1,671.14,716.6c-2.208.666-4.406,1.313-6.633,1.913-2.322.647-4.644,1.256-6.995,1.827a254,254,0,0,1-53.38,7.223c-2.427.076-4.873.1-7.328.1-1.218,0-2.417-.01-3.635-.019-.371,0-.742-.01-1.113-.019-1.075-.029-2.189-.048-3.312-.076a253.78,253.78,0,0,1-64.1-10.307l-.885-.257c-1.37-.419-2.731-.828-4.092-1.266q-9.422-2.984-18.567-6.681-6.981-2.812-13.8-6.034a.323.323,0,0,1-.114-.057c-.952-.438-1.913-.895-2.865-1.361-.124-.067-.257-.133-.39-.2q-5.325-2.6-10.535-5.444c-2.922-6.709-7.033-7.994-9.584-13.895a24.624,24.624,0,0,1-1.6-5.463c0-.019-.009-.038-.009-.067.266,3.54-1.133-6.281-.01-.038-.01-.114-.019-.238-.029-.381-.029-.343-.067-.761-.124-1.285-3.264-31.872-3.055-68.322-4.473-98.357q-.143-2.912-.3-5.577c-.029-.59-.067-1.171-.1-1.742.067-.171.143-.352.228-.523a.954.954,0,0,1,.067-.143,1.558,1.558,0,0,1,.1-.171c.019-.029.048-.067.067-.1a.86.86,0,0,1,.048-.1c.086-.133.181-.276.286-.409.048-.057.086-.1.133-.152a.77.77,0,0,1,.114-.133.6.6,0,0,1,.1-.124c.038-.038.076-.086.124-.133a.288.288,0,0,1,.076-.076,1.931,1.931,0,0,1,.247-.238,9.159,9.159,0,0,1,1.085-.857c.133-.086.276-.171.409-.266a18.21,18.21,0,0,1,3.017-1.447c.362-.133.723-.257,1.113-.39.143-.038.276-.086.419-.133.209-.067.419-.133.638-.181,1.085-.324,2.255-.6,3.521-.857.152-.029.314-.057.476-.1.228-.048.466-.086.7-.124.324-.057.657-.114.99-.171,2.827-.447,6.034-.78,9.574-1l1-.057,1.18-.057c.333-.019.676-.029,1.018-.038s.676-.029,1.028-.038c.961-.029,1.951-.057,2.96-.076,2.874-.057,5.9-.038,9.079.029,1.475.038,2.979.076,4.521.143.1,0,.2.01.3.01,1.342.048,2.693.1,4.083.181.971.048,1.951.1,2.931.152.923.057,1.856.114,2.8.181.733.038,1.466.1,2.208.143.628.048,1.256.1,1.884.133l.857.057c.466.038.933.067,1.408.114,1.047.086,2.094.171,3.16.257s2.132.19,3.207.285,2.16.2,3.245.3l.324.029c.99.1,1.979.2,2.979.3.228.019.466.038.695.067.953.1,1.924.208,2.885.31l.885.095c.753.082,1.5.153,2.254.242,1,.114,2.018.219,3.007.352.771.086,1.542.171,2.313.267,1.209.143,2.436.295,3.664.457.466.057.933.114,1.4.181,3.5.438,7.043.923,10.64,1.428,5.453.771,10.992,1.608,16.569,2.512s11.2,1.859,16.854,2.865c1.427.257,2.855.514,4.292.78l1.941.371c1.1.2,2.208.409,3.312.619s2.208.419,3.312.638l3.95.771c8.651,1.713,17.254,3.54,25.648,5.453,1.38.314,2.76.638,4.13.952q4.111.956,8.146,1.941c.742.171,1.475.352,2.208.533,1.827.457,3.654.914,5.453,1.38l.314.086c1.323.324,2.617.657,3.911,1q4.582,1.2,9.012,2.427,2.941.814,5.815,1.646c2.865.828,5.672,1.665,8.4,2.512.676.209,1.351.419,2.018.619,2,.619,3.969,1.247,5.881,1.875,1.523.495,3.007,1,4.473,1.5s2.9,1.009,4.311,1.513c.9.324,1.8.666,2.693.99,1.285.476,2.55.952,3.788,1.428.381.143.752.295,1.123.438.238.1.466.19.695.286.447.181.9.352,1.342.533s.885.352,1.323.542c.428.171.866.352,1.285.533s.847.352,1.266.542c.352.143.695.3,1.028.447.676.3,1.351.59,2.008.895.324.152.647.3.971.447l.742.343c.1.057.209.1.314.152.238.114.485.238.723.352.552.257,1.094.533,1.627.79.714.362,1.408.723,2.075,1.075s1.332.723,1.961,1.075c.1.057.2.114.3.171.143.076.285.162.428.238.485.276.952.562,1.418.837.914.562,1.78,1.113,2.589,1.665.181.124.352.247.533.362.6.428,1.171.847,1.7,1.275,0,.01,0,.01.01.01.181.133.352.276.523.409.143.133.295.247.438.381.495.428.952.837,1.37,1.256a5.414,5.414,0,0,1,.4.409,1.154,1.154,0,0,1,.152.152c.19.19.362.381.523.571a.527.527,0,0,1,.067.086c.228.266.438.533.638.8.1.133.2.266.285.4.114.162.228.333.324.495.086.133.162.276.238.409a6.914,6.914,0,0,1,.514,1.075,4.983,4.983,0,0,1,.257.78,5.581,5.581,0,0,1,.162.771Z" transform="translate(-218.696 -183.058)" fill="#2f2e41"/>
        <path id="Path_86" data-name="Path 86" d="M736.407,622.2c-.01,1.665-.029,4-.1,6.881-.01.4-.029.809-.038,1.228-.1,4.045-.238,9.041-.438,14.685-.01.343-.019.676-.038,1.018-.266,6.89-.685,14.913-1.409,27.618-1.342,23.469-3.683,3.226-6.034,11.458-6.529-4.016-13.685-8.223-21.337-12.543q-2.07-1.171-4.178-2.351c-15.3-8.537-32.4-17.483-50.24-26.343-.7-.352-1.418-.7-2.122-1.047-40.875-20.2-85.49-39.857-121.635-52.971-6.976-2.531-13.638-4.816-19.9-6.824-13.19-4.216-24.592-7.166-33.366-8.442-9.136-1.332-15.446-.857-18,1.894q-.143-2.912-.3-5.577-.057-.885-.114-1.742c.059-.157.135-.306.209-.457.011-.022.018-.045.029-.066a.951.951,0,0,1,.067-.143,1.542,1.542,0,0,1,.1-.171,1.012,1.012,0,0,1,.114-.19c.086-.133.181-.276.285-.409a3.321,3.321,0,0,1,.247-.286.6.6,0,0,1,.1-.124c.038-.038.076-.086.124-.133a.286.286,0,0,1,.076-.076,1.932,1.932,0,0,1,.247-.238,9.171,9.171,0,0,1,1.085-.857c.133-.086.276-.171.409-.266a18.209,18.209,0,0,1,3.017-1.447c.362-.133.723-.257,1.113-.39.143-.038.276-.086.419-.133.209-.067.419-.133.638-.181,1.085-.324,2.256-.6,3.521-.857.381-.076.78-.152,1.18-.219.324-.057.657-.114.99-.171,2.827-.447,6.034-.78,9.574-1l1-.057,1.18-.057c.333-.019.676-.029,1.018-.038s.676-.029,1.028-.038c.961-.029,1.951-.057,2.96-.076,2.874-.048,5.9-.029,9.079.038,1.475.029,2.979.076,4.521.143.1,0,.2.01.3.01,1.342.038,2.7.1,4.083.171.971.048,1.951.1,2.931.152.923.057,1.856.114,2.8.181.733.038,1.466.1,2.208.143.628.048,1.256.1,1.884.133l2.265.171c1.047.086,2.094.171,3.16.257s2.132.19,3.207.285,2.16.2,3.245.3l.324.029c.99.1,1.979.2,2.979.3q8.308.842,17.1,1.97,5.253.671,10.64,1.437c5.453.771,10.992,1.608,16.569,2.5s11.2,1.859,16.854,2.865c1.428.257,2.855.514,4.292.78q2.627.485,5.253.99c1.1.209,2.208.419,3.312.638l3.95.771c8.651,1.713,17.254,3.54,25.648,5.453,1.38.314,2.76.638,4.13.952q4.111.956,8.146,1.941c.742.181,1.475.362,2.208.542q2.755.685,5.453,1.37v.01c.1.019.209.048.314.076,1.313.333,2.617.666,3.911,1.009q4.582,1.2,9.012,2.417c1.961.552,3.9,1.094,5.815,1.646,2.865.837,5.672,1.675,8.4,2.512.676.209,1.351.419,2.018.619q3,.942,5.881,1.875c1.523.495,3.007,1,4.473,1.5s2.9,1.009,4.311,1.513c.914.324,1.808.657,2.693.98,1.294.476,2.551.952,3.788,1.437.381.143.752.295,1.123.438.695.267,1.37.542,2.037.818.447.171.885.352,1.323.542.428.171.866.352,1.285.533s.847.352,1.266.542c.352.143.695.3,1.028.447.676.3,1.351.59,2.008.895.324.152.647.3.971.447l.742.343c.1.057.209.1.314.152.809.381,1.589.761,2.351,1.142.714.362,1.408.723,2.075,1.075.79.419,1.542.828,2.265,1.247.143.076.286.162.428.238.485.276.952.562,1.418.837.914.562,1.78,1.113,2.589,1.665s1.542,1.094,2.236,1.637c0,.01,0,.01.01.01.333.266.657.533.961.79.495.428.952.837,1.37,1.256a5.4,5.4,0,0,1,.4.409,1.147,1.147,0,0,1,.152.152c.2.219.4.438.59.657.228.266.438.533.638.8.1.133.2.266.285.4.114.162.228.333.324.495.086.133.162.276.238.409a6.917,6.917,0,0,1,.514,1.075,5.756,5.756,0,0,1,.257.78,5.569,5.569,0,0,1,.162.771Z" transform="translate(-218.695 -183.059)" opacity="0.2"/>
      </g>
    </g>
  </g>
</svg>
